<?xml version="1.0" encoding="UTF-8"?>
<svg version="1.1" viewBox="0 0 600 190" xml:space="preserve" xmlns="http://www.w3.org/2000/svg" xmlns:cc="http://creativecommons.org/ns#" xmlns:dc="http://purl.org/dc/elements/1.1/" xmlns:rdf="http://www.w3.org/1999/02/22-rdf-syntax-ns#">
   <metadata><rdf:RDF><cc:Work rdf:about=""><dc:format>image/svg+xml</dc:format><dc:type rdf:resource="http://purl.org/dc/dcmitype/StillImage"/><dc:title/></cc:Work></rdf:RDF></metadata>
<style type="text/css">
	.main{fill:#0F1031;}
</style>

<path class="main" d="m204.24 189.98c-2.5022-0.10397-5.0043-0.83176-6.881-2.3913-0.10426-0.10396-0.20852-0.10396-0.31277-0.20793-1.9809-1.5596-2.3979-3.639-2.1894-6.1342 0.31277-5.1985 1.1468-14.348 0.31277-19.546-0.52129-3.6389-6.2554-4.6786-9.5917-6.3422-7.715-3.7429-14.805-8.9414-17.619-17.363-1.6681-4.9906-2.1894-10.397-1.2511-15.595 0.83406-4.7826 3.0235-9.2533 6.6725-12.476 0.31277-0.31191 0.7298-0.62381 0.93831-1.0397 0.20852-0.41589 0.31278-0.93574 0-1.2476-0.20851-0.3119-0.62554-0.51984-1.0426-0.62381-2.0851-0.51986-4.066-0.93574-6.0469-1.7675-2.1894-0.83176-4.2746-1.8715-6.2554-3.1191-4.1703-2.7032-7.715-6.5501-10.009-10.917-5.4214-10.709-2.8149-24.017 2.7107-33.998 4.9001-8.8374 12.824-16.219 21.685-21.21 3.1277-1.7675 6.3597-3.2231 9.6959-4.3667 2.9192-1.0397 5.9427-1.8715 8.9661-2.8072 1.0426-0.31191 2.8149-0.83176 3.3362-1.8715 0.20851-0.51985 0.20851-1.0397 0.20851-1.5595-0.20851-5.0945-0.41703-10.085-0.41703-15.18 0-2.2873 0.20852-4.3667 1.6681-6.3422 2.5022-3.327 7.298-4.2628 11.26-3.7429 3.9618 0.51985 8.3406 2.3913 9.8002 6.4461 0.7298 2.0794 0.83405 4.3667 0.62554 6.5501-0.10426 1.6635-0.41703 3.327-0.62554 4.9906-0.10426 0.83176-0.20852 1.7675-0.20852 2.5992 0 0.72779-0.10425 1.4556 0.31277 2.1834 0.7298 1.1437 4.066-0.10397 5.0044-0.31191 7.0895-1.2476 14.387-1.3516 21.373 0.20794 8.3406 1.7675 10.113 14.14 5.9427 20.274-3.649 5.5104-5.1086 3.7429-10.738 2.9112-4.9001-0.72779-15.534-0.93573-20.434 0.20794-1.1468 0.31191-2.7107 0.83176-2.8149 2.1834-0.62554 11.957-0.93832 23.913-1.4596 35.87 0 0.83176 0.31277 1.0397 1.1468 1.1437 6.6725 0.51985 11.781 6.5501 10.738 13.204-0.83406 4.9906-5.1086 8.9414-10.009 9.7732-0.41703 0.10397-0.93832 0.10397-1.3554 0.31191-1.0426 0.51985-0.93831 2.3913-0.83405 3.327 0.31277 7.1739 0.10425 14.348 0.10425 21.522 0 2.5992 6.2554-1.1437 7.1938-1.5596 3.0235-1.5596 6.0469-3.2231 9.0704-4.7826 2.815-1.4556 5.8384-3.431 9.0704-2.8072 7.9235 1.4556 9.2789 11.749 5.9426 17.675-3.3362 5.9263-9.4874 9.5652-15.743 11.853-3.1277 1.1437-6.3597 2.0794-9.4874 3.0151-2.3979 0.72778-6.3597 0.83176-6.3597 3.9508 0 6.0302 0.10426 11.957 0.31277 17.987 0.31278 7.3819-6.1512 11.437-12.407 11.125zm-13.97-103.66c3.7533 0.10397 6.7767-0.31191 6.7767-1.6635 0.31277-10.813 0.52128-21.626 0.31277-32.439 0-3.0151-8.2363 0.72779-9.2789 1.1437-4.2745 1.6635-8.4448 3.7429-12.094 6.6541-4.066 3.327-8.5491 8.5255-8.9661 14.036-0.41703 4.9906 3.4405 8.3176 7.8193 9.9811 0.62554 0.20794 1.3553 0.51985 2.0851 0.62382 1.2511 0.41588 8.0278 1.5595 13.345 1.6635zm3.3362 46.371c1.6681-0.20795 2.3979-1.7675 2.5022-3.327 0.20852-3.0151 0-6.0302 0.10426-8.9414 0-3.1191 0-6.2382 0.10426-9.3573 0-0.41588-1.6681 0.31191-1.7724 0.41588-0.83405 0.41588-1.5638 0.93573-2.2936 1.4556-1.8766 1.3516-3.8575 3.2231-4.7958 5.4064-0.83406 1.9754-1.4596 3.9508-1.3554 6.1342 0 1.7675 0.41703 3.535 1.3554 4.9906 1.1468 1.7675 2.9192 2.9112 5.0043 3.2231 0.41703 0 0.83406 0.10397 1.1468 0zm-118.33-12.372c0.62554-0.51986 1.5639-1.6635 2.3979-1.5596 0.52129 0.10397 1.0426 0.51984 1.3553 0.83176 12.302 11.229 24.813 22.25 37.22 33.27 3.7533 3.327 7.4023 7.4858 11.573 10.397 2.0851 1.5595 4.7958 1.4556 6.9852 0.10396 1.3553-0.83175 2.2937-2.0794 3.3362-3.327 1.4596-1.8714 2.8149-4.0548 2.5022-6.3422-0.10426-1.3516-0.83406-2.5992-1.6681-3.7429-1.3553-1.8715-3.0234-3.431-4.7958-4.9906-1.8766-1.5595-3.7532-3.1191-5.5256-4.6786-3.9618-3.6389-8.132-7.1739-12.198-10.813-8.1321-7.1739-16.16-14.452-23.875-22.042-0.20851-0.20795-0.41703-0.72779-0.20851-0.93574 0.52128-0.62381 1.0426-1.3516 1.6681-1.7675l47.646-37.949c0.7298-0.83176 1.4596-1.6635 1.8766-2.5992 1.1468-2.4953-0.10426-5.1985-1.6681-7.1739-2.7107-3.431-5.4214-7.4858-9.8002-8.9414-4.6916-1.4556-7.4023 1.5595-10.738 4.2628l-45.665 36.493c-0.7298 1.1437-2.7107 1.3516-3.5447 0.62382l-53.901-49.49c-2.9192-2.8072-5.7341-4.9906-10.009-4.3667-3.649 0.41588-6.7767 2.9112-7.8193 6.3422-0.31277 0.93573-0.41703 1.9754-0.41703 3.0151 0.20851 3.327 2.3979 5.1985 4.6916 7.1739 7.8193 6.5501 15.222 13.724 22.728 20.586 10.321 9.4613 21.06 18.403 31.069 28.28 0.20851 0.20794 0.41703 0.41588 0.41703 0.72779 0 0.41588-0.31277 0.72779-0.62554 1.0397-0.10426 0.10397-0.20852 0.10397-0.20852 0.20793-16.16 13.308-32.945 26.096-49.314 39.093-1.0426 0.83176-2.1894 1.6635-2.9192 2.7032-3.5447 4.7826-3.3362 9.2533-1.2511 14.556 1.5639 4.0548 4.6916 8.6295 9.6959 7.5898 2.8149-0.62382 4.7958-2.8072 7.1937-4.2628zm224.88-56.456 8.132-13.932h7.715l-11.677 19.026 11.885 19.338h-7.8193l-8.2363-14.036-8.3406 14.14h-7.8193l11.99-19.338-11.677-19.026h7.715zm47.02 15.595h-14.909l-3.1277 8.9414h-6.9852l14.596-38.469h6.0469l14.596 38.469h-6.9852zm-13.032-5.4064h11.156l-5.6299-16.011zm62.45 14.348h-6.6725l-17.202-27.24v27.24h-6.6724v-38.469h6.6724l17.202 27.344v-27.344h6.6725zm12.302 0v-38.469h11.364c3.4405 0 6.464 0.72779 9.0704 2.2873 2.6064 1.5595 4.6916 3.6389 6.1512 6.4461 1.4596 2.8072 2.1894 5.9263 2.1894 9.5652v1.8715c0 3.6389-0.7298 6.862-2.1894 9.5652-1.4596 2.8072-3.5447 4.8866-6.2554 6.3422-2.7107 1.4556-5.7341 2.2873-9.2789 2.2873h-11.051zm6.6725-33.062v27.76h4.3788c3.5448 0 6.2554-1.1437 8.1321-3.327 1.8766-2.1834 2.8149-5.3025 2.9192-9.4613v-2.1834c0-4.1588-0.93831-7.3819-2.7107-9.5652-1.7724-2.1834-4.483-3.327-7.9235-3.327h-4.7958zm54.109 24.121h-14.909l-3.1277 8.9414h-6.9852l14.596-38.469h6.0469l14.596 38.469h-6.9852zm-13.032-5.4064h11.156l-5.6299-15.907zm46.082-0.51985h-7.5065v14.764h-6.6725v-38.469h13.553c4.4831 0 7.9235 1.0397 10.321 3.0151 2.3979 1.9754 3.649 4.8866 3.649 8.6295 0 2.5992-0.62554 4.6786-1.8766 6.4461-1.2511 1.7675-3.0235 3.1191-5.2129 4.0548l8.6534 16.011v0.31191h-7.1938zm-7.4023-5.3025h6.881c2.2936 0 4.066-0.51985 5.3171-1.6635 1.2511-1.1437 1.8766-2.7032 1.8766-4.6786 0-2.0794-0.62554-3.6389-1.7724-4.7826-1.1468-1.1437-2.9192-1.6635-5.2129-1.7675h-7.0895zm60.886 7.5898c-0.41703 4.0548-1.8766 7.2779-4.5873 9.5652-2.7107 2.2873-6.1512 3.431-10.53 3.431-3.0235 0-5.7341-0.72779-8.1321-2.1834-2.3979-1.4556-4.1703-3.535-5.4214-6.2382-1.2511-2.7032-1.9809-5.8223-1.9809-9.3573v-3.6389c0-3.6389 0.62555-6.862 1.9809-9.5652 1.2511-2.8072 3.1277-4.8866 5.5256-6.3422 2.3979-1.4556 5.2129-2.2873 8.3406-2.2873 4.2746 0 7.715 1.1437 10.321 3.431s4.066 5.5104 4.4831 9.7732h-6.6725c-0.31277-2.8072-1.1468-4.7826-2.3979-6.0302-1.2511-1.2476-3.232-1.8715-5.7342-1.8715-2.9192 0-5.1086 1.0397-6.6725 3.2231-1.5638 2.0794-2.3979 5.1985-2.3979 9.3573v3.431c0 4.1588 0.7298 7.2779 2.1894 9.4613 1.4596 2.1834 3.649 3.327 6.5682 3.327 2.6064 0 4.5873-0.62382 5.9427-1.7675 1.3553-1.1437 2.1894-3.1191 2.5022-5.9263h6.6725zm40.973 12.58h-6.6725v-17.051h-17.202v17.051h-6.6725v-38.469h6.6725v16.011h17.202v-16.011h6.6725zm-298.38 37.013h-9.9044l-2.1894 6.2382h-3.232l9.0704-23.705h2.7107l9.0704 23.705h-3.232zm-8.9661-2.4953h8.0278l-4.066-11.021zm33.675-0.83176h-5.5256v9.5652h-3.1277v-23.705h7.8193c2.7107 0 4.6916 0.62383 6.1512 1.8715 1.4596 1.2476 2.1894 3.0151 2.1894 5.3025 0 1.4556-0.41703 2.8072-1.1468 3.8469-0.7298 1.0397-1.8766 1.8715-3.3362 2.4953l5.5256 10.085v0.20793h-3.3362zm-5.5256-2.5992h4.7958c1.5639 0 2.8149-0.41588 3.7533-1.2476 0.93831-0.83175 1.3553-1.8714 1.3553-3.2231 0-1.4556-0.41703-2.5992-1.3553-3.327-0.83406-0.83176-2.0851-1.1437-3.7533-1.1437h-4.7958zm42.224 4.5747c-0.31277 2.4953-1.2511 4.4707-2.8149 5.8223s-3.649 2.0794-6.2554 2.0794c-2.8149 0-5.0043-1.0397-6.7767-3.0151-1.6681-1.9754-2.5022-4.6786-2.5022-8.0057v-2.2873c0-2.1834 0.41703-4.1588 1.1468-5.8223 0.83406-1.6635 1.8766-2.9112 3.3362-3.8469s3.1277-1.3516 5.0044-1.3516c2.5022 0 4.5873 0.72779 6.0469 2.0794 1.5639 1.3516 2.3979 3.327 2.6064 5.8223h-3.1277c-0.31277-1.8715-0.83405-3.2231-1.7724-4.0548-0.93831-0.83176-2.1894-1.2476-3.7532-1.2476-1.9809 0-3.5448 0.72779-4.6916 2.1834-1.1468 1.4556-1.6681 3.535-1.6681 6.3422v2.2873c0 2.5992 0.52128 4.5747 1.5639 6.1342 1.0426 1.5596 2.6064 2.2873 4.483 2.2873 1.7724 0 3.0235-0.41588 3.9618-1.1437 0.93831-0.72779 1.5638-2.1834 1.8766-4.0548h3.3362zm29.818 7.5898h-3.1277v-10.917h-11.99v10.917h-3.1277v-23.705h3.1277v10.189h11.99v-10.189h3.1277zm16.16 0h-3.1277v-23.705h3.1277zm28.983-21.106h-7.6108v21.106h-3.1277v-21.106h-7.6108v-2.5992h18.349zm24.292 10.085h-10.321v8.4216h11.99v2.5992h-15.117v-23.705h14.909v2.5992h-11.781v7.5898h10.321zm30.339 3.431c-0.31277 2.4953-1.2511 4.4707-2.8149 5.8223s-3.649 2.0794-6.2554 2.0794c-2.8149 0-5.0043-1.0397-6.7767-3.0151-1.6681-1.9754-2.5022-4.6786-2.5022-8.0057v-2.2873c0-2.1834 0.41703-4.1588 1.1468-5.8223 0.83406-1.6635 1.8766-2.9112 3.3362-3.8469s3.1277-1.3516 5.0043-1.3516c2.5022 0 4.5873 0.72779 6.0469 2.0794 1.5639 1.3516 2.3979 3.327 2.6064 5.8223h-3.1277c-0.31277-1.8715-0.83405-3.2231-1.7724-4.0548-0.93831-0.83176-2.1894-1.2476-3.7533-1.2476-1.9809 0-3.5447 0.72779-4.6916 2.1834-1.1468 1.4556-1.6681 3.535-1.6681 6.3422v2.2873c0 2.5992 0.52128 4.5747 1.5638 6.1342 1.0426 1.5596 2.6064 2.2873 4.4831 2.2873 1.7724 0 3.0235-0.41588 3.9618-1.1437 0.93831-0.72779 1.5638-2.1834 1.8766-4.0548h3.3362zm27.524-13.516h-7.6108v21.106h-3.1277v-21.106h-7.6108v-2.5992h18.349zm27.524-2.5992v16.115c0 2.1834-0.7298 4.0548-2.0852 5.5104-1.3553 1.4556-3.3362 2.1834-5.6299 2.3913h-0.83406c-2.6064 0-4.6916-0.72779-6.2554-2.0794s-2.2937-3.327-2.3979-5.7183v-16.115h3.1277v16.011c0 1.6635 0.52129 3.0151 1.4596 3.9509 0.93832 0.93572 2.2937 1.4556 4.066 1.4556s3.1277-0.51985 4.066-1.4556c0.93831-0.93574 1.4596-2.2873 1.4596-3.9509v-16.011h3.0235zm20.956 14.14h-5.5256v9.5652h-3.1277v-23.705h7.8193c2.7107 0 4.6916 0.62383 6.1512 1.8715 1.4596 1.2476 2.1894 3.0151 2.1894 5.3025 0 1.4556-0.41703 2.8072-1.1468 3.8469-0.7298 1.0397-1.8766 1.8715-3.3362 2.4953l5.5256 10.085v0.20793h-3.3362zm-5.5256-2.5992h4.7958c1.5639 0 2.8149-0.41588 3.7533-1.2476 0.93831-0.83175 1.3553-1.8714 1.3553-3.2231 0-1.4556-0.41703-2.5992-1.3553-3.327-0.83406-0.83176-2.0852-1.1437-3.7533-1.1437h-4.7958zm38.054 1.1437h-10.321v8.4216h11.99v2.5992h-15.117v-23.705h14.909v2.5992h-11.781v7.5898h10.321z" stroke-width="1.0411"/>

</svg>