<svg version="1.1" id="Layer_1" xmlns="http://www.w3.org/2000/svg" xmlns:xlink="http://www.w3.org/1999/xlink" x="0px" y="0px"
	 viewBox="0 0 100 28">

<g fill="#111231">
	<polygon points="1.1,5.1 11.4,22.9 16,22.9 26.3,5.1 24,1.1 3.4,1.1 	"/>
	<polygon points="44.4,22.9 34.1,5.1 29.6,5.1 19.3,22.9 21.5,26.9 42.2,26.9 	"/>
	<polygon points="37.4,5.1 47.7,22.9 52.3,22.9 62.6,5.1 60.3,1.1 39.7,1.1 	"/>
	<polygon points="80.7,22.9 70.4,5.1 65.9,5.1 55.6,22.9 57.8,26.9 78.5,26.9 	"/>
	<polygon points="73.7,5.1 84,22.9 88.6,22.9 98.9,5.1 96.6,1.1 76,1.1 	"/>
</g>
</svg>
